<?xml version="1.0" standalone="no"?>
<!DOCTYPE svg PUBLIC "-//W3C//DTD SVG 20010904//EN"
 "http://www.w3.org/TR/2001/REC-SVG-20010904/DTD/svg10.dtd">
<svg version="1.0" xmlns="http://www.w3.org/2000/svg"
 width="1080.000000pt" height="1080.000000pt" viewBox="0 0 1080.000000 1080.000000"
 preserveAspectRatio="xMidYMid meet">
<metadata>
Created by potrace 1.14, written by Peter Selinger 2001-2017
</metadata>
<g transform="translate(0.000000,1080.000000) scale(0.100000,-0.100000)"
fill="#000000" stroke="none">
<path d="M5885 6250 c-134 -8 -158 -14 -245 -61 -190 -101 -260 -319 -260
-809 0 -466 76 -687 272 -786 79 -40 160 -54 319 -54 208 0 291 27 406 133 55
50 118 156 139 234 19 70 36 449 22 499 -16 61 -19 62 -222 62 -102 0 -205 4
-230 7 -55 9 -112 -9 -128 -38 -17 -32 -11 -247 7 -266 10 -10 47 -16 125 -19
l110 -5 0 -31 c0 -49 -24 -132 -51 -171 -33 -49 -90 -77 -171 -83 -87 -6 -130
3 -168 35 -71 59 -90 147 -94 423 -3 205 7 403 25 466 13 50 59 108 102 131
43 22 158 20 223 -4 60 -22 104 -82 123 -165 6 -31 17 -61 24 -66 7 -6 71 -9
151 -8 131 3 140 4 158 26 10 12 18 37 18 55 0 54 -37 177 -75 247 -38 71
-130 165 -194 198 -50 25 -191 60 -233 58 -18 -1 -87 -5 -153 -8z"/>
<path d="M1286 6241 c-61 -6 -82 -12 -93 -27 -19 -27 -11 -51 61 -184 74 -136
208 -401 296 -587 l62 -133 -1 -344 c-1 -189 1 -356 5 -370 9 -37 57 -49 180
-44 155 5 143 -26 147 378 l3 335 76 170 c42 94 106 224 144 290 37 66 91 167
121 225 29 58 67 130 83 160 31 59 38 98 18 118 -15 15 -267 17 -300 1 -28
-12 -43 -35 -135 -199 -89 -158 -110 -199 -138 -274 l-23 -60 -111 230 c-132
272 -133 274 -163 296 -28 21 -123 29 -232 19z"/>
<path d="M2695 6241 c-22 -4 -35 -16 -48 -42 -16 -33 -17 -94 -20 -805 -2
-814 -3 -799 44 -824 13 -7 126 -11 327 -12 303 0 308 0 397 26 150 44 233
115 306 258 58 116 70 215 70 568 -1 345 -12 445 -65 556 -53 111 -85 146
-181 199 -123 67 -188 76 -525 80 -151 1 -288 -1 -305 -4z m480 -320 c128 -9
164 -24 200 -81 43 -69 55 -160 55 -430 0 -335 -20 -427 -106 -481 -29 -18
-57 -22 -182 -29 -82 -4 -157 -3 -171 2 l-24 8 8 503 c4 276 9 505 12 509 5
10 64 9 208 -1z"/>
<path d="M4092 6230 c-12 -5 -28 -22 -34 -37 -9 -21 -12 -235 -12 -812 -1
-719 0 -787 16 -805 15 -19 26 -21 130 -19 133 3 154 7 167 32 6 10 11 145 13
319 1 166 5 298 9 294 3 -4 80 -112 170 -241 211 -300 248 -350 282 -375 25
-19 45 -21 187 -24 l159 -3 16 25 c20 30 17 38 -69 148 -116 151 -353 479
-361 500 -5 12 5 18 42 27 58 15 161 74 224 129 84 74 139 221 139 369 0 69
-34 204 -67 265 -35 65 -75 100 -168 146 -119 60 -210 72 -547 71 -150 0 -283
-4 -296 -9z m618 -324 c78 -40 113 -99 114 -191 0 -78 -22 -120 -77 -146 -36
-16 -67 -19 -208 -19 l-165 0 0 180 c1 149 4 183 16 191 9 6 68 9 150 6 105
-3 143 -8 170 -21z"/>
<path d="M6885 6233 c-125 -5 -125 -5 -125 -163 0 -93 4 -131 14 -146 14 -18
27 -19 289 -15 151 1 277 -1 280 -6 3 -4 -15 -46 -39 -93 -55 -106 -175 -351
-285 -580 -46 -96 -104 -209 -128 -250 -66 -113 -171 -339 -171 -369 0 -15 5
-32 12 -39 9 -9 142 -12 538 -12 289 0 530 4 537 8 24 15 33 65 33 177 0 90
-3 117 -16 129 -13 14 -56 16 -315 16 -164 0 -299 2 -299 6 0 7 150 307 161
320 5 6 74 141 155 300 129 254 255 501 315 616 10 20 19 46 19 56 0 45 -8 46
-459 48 -234 0 -466 -1 -516 -3z"/>
<path d="M8116 6218 l-26 -23 -6 -805 c-7 -766 -6 -806 11 -820 12 -10 53 -16
134 -21 124 -6 154 -1 166 28 5 10 10 229 13 487 l4 469 37 -69 c20 -38 46
-83 57 -99 12 -17 33 -52 47 -80 14 -27 40 -73 58 -102 19 -28 56 -91 84 -138
34 -59 57 -88 73 -92 30 -7 99 2 116 16 8 7 40 62 71 124 32 62 66 124 77 140
11 15 32 51 47 80 15 28 49 88 74 132 l47 80 2 -370 c3 -598 2 -574 22 -593
14 -14 34 -17 134 -14 116 3 171 14 173 36 2 23 -2 767 -7 1186 -3 373 -6 436
-19 450 -12 11 -44 16 -129 18 -139 4 -139 4 -227 -153 -34 -60 -76 -130 -93
-155 -33 -48 -88 -148 -193 -348 l-65 -123 -19 33 c-10 18 -62 121 -115 228
-124 250 -271 499 -302 511 -13 5 -68 9 -122 9 -88 0 -102 -2 -124 -22z"/>
</g>
</svg>
